<svg xmlns="http://www.w3.org/2000/svg" width="24" height="24" viewBox="0 0 24 24">
    <g fill="none" fill-rule="evenodd">
        <g fill="#000">
            <path d="M6.76 5.29L4.96 3.5 3.55 4.91 5.34 6.7l1.42-1.41zM4 10.95H1v2h3v-2zM13 1h-2v2.95h2V1zm7.45 3.91L19.04 3.5l-1.79 1.79 1.41 1.41 1.79-1.79zm-3.21 13.7l1.79 1.8L20.44 19l-1.8-1.79-1.4 1.4zM20 10.95v2h3v-2h-3zm-8-5c-3.31 0-6 2.69-6 6s2.69 6 6 6 6-2.69 6-6-2.69-6-6-6zM11 22.9h2v-2.95h-2v2.95zm-7.45-3.91l1.41 1.41 1.79-1.8-1.41-1.41-1.79 1.8z"/>
        </g>
    </g>
</svg>
