<svg xmlns="http://www.w3.org/2000/svg" width="24" height="24" viewBox="0 0 24 24">
    <g fill="none" fill-rule="evenodd">
        <g fill="#000">
            <path d="M11.682 11.29L12.703 9.497 12.703 7.942 15.073 5.182 14.909 7.116 15.374 7.707 15.999 6.465 15.999 4.596 17.731 4.092 16.911 3.23 17.545 2.131 18.502 2.131 18.502 1.571 15.797 0 14.909 0.821 12.703 1.061 11.424 2.836 10.891 2.527 11.424 1.311 9.513 2.131 7.258 6.091 6 7.707 6 8.73 6.94 7.707 8.222 6.851 8.222 6.465 9.513 4.809 9.696 5.645 7.749 9.832 6.94 12.433 6.374 16.374 6.674 21.139 8.057 24 9.513 24 11.105 22.851 12.535 19.689 12.703 17.368 11.424 13.594 11.994 12.667z"/>
        </g>
    </g>
</svg>
