<svg xmlns="http://www.w3.org/2000/svg" width="24" height="24" viewBox="0 0 24 24">
    <g fill="none" fill-rule="evenodd">
        <g fill="#000">
            <path d="M11.188 23.438L12.739 22.908 14.585 21.137 14.386 16.469 16.724 12.832 16.195 10.421 14.585 8.459 16.724 8.459 17.024 10.154 20.146 12.832 22.427 13.728 24 11.149 19.133 3.786 10.394 1.78 8.089 2.148 2.244 0 3.964 3.308 0.592 2.939 0 4.059 0 4.774 2.597 5.812 3.211 6.864 6.167 7.914 7.078 9.672 6.167 10.154 6.841 10.941 6.841 14.63 5.888 15.204 5.633 16.469 4.514 16.918 3.964 18.075 3.964 19.193 4.974 19.689 7.287 17.175 9.012 16.469 9.707 16.918 10.394 18.075z"/>
        </g>
    </g>
</svg>
