<svg xmlns="http://www.w3.org/2000/svg" width="24" height="24" viewBox="0 0 24 24">
    <g fill="none" fill-rule="evenodd">
        <g>
            <path fill="#000" d="M12 3C8.683 3 6 5.817 6 9.3 6 14.025 12 21 12 21s6-6.975 6-11.7C18 5.817 15.317 3 12 3z"/>
            <path fill="#FFF" fill-rule="nonzero" d="M12 2c3.87 0 7 3.13 7 7 0 1.893-.91 4.112-2.075 6.175l-.323.558c-.055.093-.11.185-.166.276l-.336.543-.17.266-.344.523-.344.506-.342.487-.336.466-.329.444-.471.618-.572.723-.486.593-.45.531L12 22l-.412-.473-.406-.484-.374-.458-.422-.53-.621-.81-.496-.675-.34-.477-.171-.246-.344-.506-.343-.523-.34-.536c-.056-.09-.112-.181-.167-.273l-.329-.554C5.995 13.315 5 10.98 5 9c0-3.87 3.13-7 7-7zm0 1C8.682 3 6 5.682 6 9c0 1.044.332 2.308.961 3.736.579 1.313 1.388 2.72 2.368 4.173.748 1.109 1.55 2.179 2.354 3.168l.317.385.317-.385c.803-.99 1.606-2.06 2.354-3.168.98-1.452 1.79-2.86 2.368-4.173C17.668 11.308 18 10.044 18 9c0-3.318-2.682-6-6-6z"/>
        </g>
    </g>
</svg>
