<svg xmlns="http://www.w3.org/2000/svg" width="24" height="24" viewBox="0 0 24 24">
    <g fill="none" fill-rule="evenodd">
        <g fill="#000">
            <path d="M18.67 18c1.11 0 1.73.37 2.18.64.37.23.59.36 1.15.36v2c-1.11 0-1.73-.37-2.18-.64-.37-.22-.6-.36-1.15-.36-.56 0-.78.13-1.15.36-.46.27-1.07.64-2.18.64s-1.73-.37-2.18-.64c-.37-.22-.6-.36-1.15-.36-.56 0-.78.13-1.15.36-.46.27-1.08.64-2.19.64-1.11 0-1.73-.37-2.18-.64-.37-.23-.6-.36-1.15-.36-.55 0-.78.13-1.15.36-.46.27-1.08.64-2.19.64v-2c.56 0 .78-.13 1.15-.36.46-.27 1.08-.64 2.19-.64 1.11 0 1.73.37 2.18.64.37.23.59.36 1.15.36.56 0 .78-.13 1.15-.36.46-.27 1.08-.64 2.19-.64 1.11 0 1.73.37 2.18.64.37.22.6.36 1.15.36.55 0 .78-.13 1.15-.36.45-.27 1.07-.64 2.18-.64zm-.02-4.5c1.11 0 1.73.37 2.18.64.37.22.6.36 1.15.36v1.999l-.21-.004c-.968-.047-1.532-.384-1.95-.635-.37-.22-.6-.36-1.15-.36-.56 0-.78.13-1.15.36-.45.27-1.07.64-2.18.64s-1.73-.37-2.18-.64c-.37-.22-.6-.36-1.15-.36-.56 0-.78.13-1.15.36-.45.27-1.07.64-2.18.64s-1.73-.37-2.18-.64c-.37-.22-.6-.36-1.15-.36-.55 0-.78.13-1.15.36-.47.27-1.09.64-2.2.64v-2c.56 0 .78-.13 1.15-.36.45-.27 1.07-.64 2.18-.64s1.73.37 2.18.64c.37.22.6.36 1.15.36.56 0 .78-.13 1.15-.36.45-.27 1.07-.64 2.18-.64s1.73.37 2.18.64c.37.22.6.36 1.15.36.55 0 .78-.13 1.15-.36.45-.27 1.07-.64 2.18-.64zM5 3c2.5-.01 3.93.45 5.48 2l6.42 6.41c-.15.08-.29.16-.41.23-.37.23-.6.36-1.15.36-.55 0-.78-.14-1.15-.36-.45-.27-1.07-.64-2.18-.64s-1.73.37-2.19.64c-.37.23-.59.36-1.15.36-.56 0-.78-.13-1.15-.36-.21-.12-.46-.27-.77-.39L10 8 9 7C7.89 5.89 6.82 5.49 5 5.5zm11.5 0C17.88 3 19 4.12 19 5.5S17.88 8 16.5 8 14 6.88 14 5.5 15.12 3 16.5 3z"/>
        </g>
    </g>
</svg>
