<svg xmlns="http://www.w3.org/2000/svg" width="24" height="24" viewBox="0 0 24 24">
    <g fill="none" fill-rule="evenodd">
        <g fill="#000">
            <path d="M22.804 19.588l-2.234-2.235c-1.073-1.072-2.533-1.71-4.045-1.774l-1.009-1.009c2.347-2.505 3.838-5.333 4.689-7.318.982-2.29 1.345-3.953 1.36-4.023.048-.222-.02-.453-.181-.613-.16-.16-.392-.23-.614-.181-.07.015-1.731.378-4.022 1.36-1.985.851-4.813 2.341-7.318 4.688L8.42 7.475C8.357 5.963 7.72 4.503 6.647 3.43L4.412 1.196C4.287 1.071 4.117 1 3.94 1c-.177 0-.347.07-.473.196l-2.27 2.27c-.261.262-.261.685 0 .946L3.43 6.647c1.073 1.072 2.533 1.71 4.045 1.774L8.483 9.43c-2.347 2.505-3.836 5.333-4.688 7.318-.982 2.29-1.345 3.952-1.36 4.022-.048.222.02.453.181.614.127.127.298.196.473.196.047 0 .094-.005.14-.015.07-.015 1.732-.378 4.023-1.36 1.985-.852 4.813-2.342 7.318-4.689l1.009 1.01c.064 1.51.702 2.971 1.774 4.044l2.235 2.234c.13.13.301.196.473.196.17 0 .342-.065.473-.196l2.27-2.27c.125-.126.196-.296.196-.473 0-.178-.07-.348-.196-.473zm-11.839-4.4c-.566.293-1.01.4-1.355.4-.415 0-.689-.155-.866-.332-.325-.325-.577-.975.068-2.222.31-.6.787-1.262 1.369-1.907l.948.948c-.401.45-.745.91-.993 1.33-.229.388-.329.661-.367.826.164-.038.437-.138.826-.368.42-.248.88-.59 1.33-.992l.948.948c-.645.581-1.307 1.058-1.908 1.369zm2.854-2.315l-.948-.948c.401-.45.745-.91.993-1.33.23-.389.329-.662.368-.827-.165.039-.438.139-.827.368-.42.248-.88.592-1.33.993l-.948-.948c.645-.582 1.307-1.059 1.908-1.37 1.247-.644 1.896-.392 2.221-.067.325.325.577.974-.068 2.221-.31.6-.787 1.263-1.369 1.908z"/>
        </g>
    </g>
</svg>
