<svg xmlns="http://www.w3.org/2000/svg" width="24" height="24" viewBox="0 0 24 24">
    <g fill="none" fill-rule="evenodd">
        <g fill="#000">
            <path d="M17 19.95c1.35 0 2.2.42 2.95.8.65.35 1.15.6 2.05.6v1.95c-1.37 0-2.2-.42-2.95-.8-.65-.35-1.15-.6-2.05-.6-.87 0-1.4.27-2.05.6-.75.38-1.57.8-2.95.8-1.38 0-2.2-.42-2.95-.8-.65-.35-1.17-.6-2.05-.6-.88 0-1.4.27-2.05.6-.75.38-1.6.8-2.95.8v-1.95c.88 0 1.4-.27 2.05-.6.75-.38 1.57-.8 2.95-.8 1.38 0 2.2.42 2.95.8.65.35 1.15.6 2.05.6.87 0 1.4-.27 2.05-.6.75-.38 1.6-.8 2.95-.8zM17 16c1.35 0 2.2.42 2.95.8.65.35 1.15.6 2.05.6v1.95c-1.37 0-2.2-.42-2.95-.8-.65-.35-1.15-.6-2.05-.6-.9 0-1.4.25-2.05.6-.75.37-1.57.8-2.95.8-1.38 0-2.2-.42-2.95-.8-.65-.35-1.15-.6-2.05-.6-.9 0-1.4.25-2.05.6-.75.37-1.6.8-2.95.8V17.4c.88 0 1.4-.28 2.05-.6.75-.37 1.57-.8 2.95-.8 1.38 0 2.2.42 2.95.8.65.35 1.15.6 2.05.6.87 0 1.4-.28 2.05-.6.75-.37 1.6-.8 2.95-.8zm.782-3.64c.142.514.218 1.055.218 1.615 0 .198-.01.394-.028.587-.301-.043-.619-.062-.972-.062-1.072 0-1.878.203-2.818.628l-.482.23-.558.27c-.425.195-.727.272-1.142.272-.578 0-.855-.093-1.576-.48l-.224-.114C9.092 14.751 8.244 14.5 7 14.5c-.35 0-.669.02-.971.062-.02-.192-.029-.388-.029-.587 0-.56.076-1.101.218-1.616h11.564zm-3.294-6.153l1.179 4.736H8.333l1.18-4.736h4.975zM12.68 0v1.715c.967.293 1.67 1.194 1.67 2.26 0 .284-.05.556-.14.808H9.79c-.09-.252-.14-.524-.14-.808 0-1.066.703-1.967 1.67-2.26V0h1.36z"/>
        </g>
    </g>
</svg>
