<svg xmlns="http://www.w3.org/2000/svg" width="40" height="40" viewBox="0 0 24 24">
    <g fill="none" fill-rule="evenodd">
        <g>
            <path fill="#2979FF" d="M7 1C3.683 1 1 3.817 1 7.3 1 12.025 7 19 7 19s6-6.975 6-11.7C13 3.817 10.317 1 7 1z" transform="translate(5 2)"/>
            <path fill="#FFF" fill-rule="nonzero" d="M7 0c3.87 0 7 3.13 7 7 0 1.893-.91 4.112-2.075 6.175l-.323.558c-.055.093-.11.185-.166.276l-.336.543-.17.266-.344.523-.344.506-.342.487-.336.466-.329.444-.471.618-.572.723-.486.593-.45.531L7 20l-.412-.473-.406-.484-.374-.458-.422-.53-.621-.81-.496-.675-.34-.477-.171-.246-.344-.506-.343-.523-.34-.536c-.056-.09-.112-.181-.167-.273l-.329-.554C.995 11.315 0 8.98 0 7c0-3.87 3.13-7 7-7zm0 1C3.682 1 1 3.682 1 7c0 1.044.332 2.308.961 3.736.579 1.313 1.388 2.72 2.368 4.173.748 1.109 1.55 2.179 2.354 3.168l.317.385.317-.385c.803-.99 1.606-2.06 2.354-3.168.98-1.452 1.79-2.86 2.368-4.173C12.668 9.308 13 8.044 13 7c0-3.318-2.682-6-6-6z" transform="translate(5 2)"/>
        </g>
    </g>
</svg>
