<svg xmlns="http://www.w3.org/2000/svg" width="24" height="24" viewBox="0 0 24 24">
    <g fill="none" fill-rule="evenodd">
        <g>
            <path fill="#3997B5" d="M12 0C7.753 0 4.024 2.209 1.891 5.538h2.642V6.4H1.386c-.149.282-.287.57-.414.864h10.173v.863H.642c-.097.284-.186.571-.262.864H15.93v.863H.195c-.052.285-.095.573-.126.864h11.076v.864H.01C.006 11.72 0 11.86 0 12c0 .15.006.298.011.446h3.617v.864H.072C.725 19.32 5.815 24 12 24c6.627 0 12-5.373 12-12S18.627 0 12 0"/>
            <path fill="#3B5795" d="M20.199 16.736c-.87 1.201-2.281 1.986-3.878 1.986-1.598 0-3.008-.785-3.879-1.986-.87 1.201-2.28 1.986-3.878 1.986-1.597 0-3.008-.785-3.878-1.986-.653.9-1.61 1.563-2.722 1.84C4.108 21.842 7.8 24 12 24c4.301 0 8.072-2.265 10.19-5.665-.8-.344-1.486-.902-1.991-1.6"/>
        </g>
    </g>
</svg>
