<svg xmlns="http://www.w3.org/2000/svg" width="24" height="24" viewBox="0 0 24 24">
    <g fill="none" fill-rule="evenodd">
        <g fill="#000">
            <path d="M13.493 6c-3.436 0-6.437 2.092-8.107 3.882L2.05 7.359c-.463-.35-1.155.023-1.036.56l.923 4.192-.924 4.193c-.118.537.574.91 1.037.56l3.336-2.523c1.67 1.79 4.671 3.881 8.107 3.881 5.25 0 9.507-4.889 9.507-6.11C23 10.888 18.744 6 13.493 6zm3.34 7.028c-.506 0-.917-.41-.917-.917 0-.506.41-.917.917-.917.506 0 .916.41.916.917 0 .506-.41.917-.916.917z"/>
        </g>
    </g>
</svg>
