<svg xmlns="http://www.w3.org/2000/svg" width="24" height="24" viewBox="0 0 24 24">
    <g fill="none" fill-rule="evenodd">
        <g fill="#000">
            <path d="M0 16.287L2.916 17.018 7.775 15.537 12.016 15.537 14.59 16.699 14.968 16.423 18.902 16.287 21.431 14.138 22.455 14.138 22.957 13.053 22.63 12.674 22.63 12.047 22.246 11.412 23.586 10.106 22.957 10.106 23.202 9.737 22.81 9.392 22.157 9.737 21.602 9.198 23.718 7.737 24 7.248 23.586 7 20.835 8.052 19.754 8.052 18.534 9.198 18.273 9.881 17.584 10.106 17.434 10.422 18.039 10.745 17.434 11.27 16.579 11.27 16.059 10.924 16.059 10.422 14.767 10.566 14.271 10.219 14.408 9.881 13.207 9.737 7.559 11.016 5.37 11.412 3.725 12.674 2.701 13.053 1.681 13.942 1.403 14.585z"/>
        </g>
    </g>
</svg>
