<svg xmlns="http://www.w3.org/2000/svg" width="24" height="24" viewBox="0 0 24 24">
    <g fill="none" fill-rule="evenodd">
        <g fill="#000">
            <path d="M16.688 7.328l.962.524.651.07.467.663h.468l1.283.593.521.947v.346l-.239-.179-.282.376.411.478v2.164l-.41.394h-.21l-.112.907-.699.079-.337.822v.491l.672.4.476-.471h.21l.668-1.125.99-.309.473.31.358.704.309 2.49.26.84-.79 1.249-.323.225-.162.633-.22.475-.387.103-.2.302-.193.613v.319L20.519 24h-3.984v-.26h-5.874l.687-.98.77-1.336.3-1.333-.096-1.51-.901-2.424.355-.645-.236-1.014.782-1.188-.097-1.24.097-.267.423-.144.499-.868h.294l.509-.91h.335l-.185.244v.778l-.15.325.335.43.508-.867V9.56l.33-.383.879-.141.094-.23h-.33l-.178-.416.178-.54.825-.523zM7.076 0l.9.24-.231.172H7.31v.215l-.904.848-.585.752-.093.929.678-.704h.768l1.05.496.765 1.28h.523l.499-.14.449.431h.745l1.355-1.01h1.925l.924-.353h.584l-.157 1.071.698.292.395-.194.515.262.518-.36.417.974-.247.313.452.197.597.64-.28.294-1.457-.177-.44-.236-.262.49v.336l-.75-.59-.929-.485h-.578l-.396.558-1.795.104-.25.614-.619.324-.22.462-.3-.34.52-.647v-.23l-.765.23V7.4l-.497.304-.152-.646-.57.987L8.306 10.2l-.426-.298.345-.777-.25-.152-.23.238-.294-.165.294-.896L7.63 7.9l.115-.195-1.013-.56.103-.423-1.456-.37-.73-.119-.761-.421-3.053-.95-.21-.536L0 3.965l1.056-.436.792-.646 1.072-.098 1.166-.65L5.603.864l.219-.37L7.076 0z"/>
        </g>
    </g>
</svg>
