<svg xmlns="http://www.w3.org/2000/svg" width="24" height="24" viewBox="0 0 24 24">
    <g fill="none" fill-rule="evenodd">
        <g fill="#000">
            <path d="M0 16.409L0.371 16.863 4.044 15.633 3.765 17.186 4.269 16.863 5.246 17.343 7.172 16.187 8.444 16.038 12.624 13.007 13.817 13.302 11.425 15.475 11.309 16.328 12.055 15.794 13.913 16.187 14.79 17.542 17.122 17.816 18.551 16.863 20.561 16.863 21.556 16.409 22.182 16.409 22.027 17.542 22.721 17.816 23.127 17.626 23.661 17.949 24 17.626 23.661 16.976 24 15.794 22.803 15.319 23.397 14.007 22.027 12.584 22.498 10.955 19.307 11.047 17.695 7.191 12.541 6 9.059 8.677 8.642 10.287 4.269 12.456z"/>
        </g>
    </g>
</svg>
